<svg xmlns="http://www.w3.org/2000/svg" width="251" height="24" viewBox="0 0 251 24"><g fill="none"><path fill="#173760" d="M221.11 12.03v3.12c0 .75.05 1.28.93 1.28.3 0 .59-.06.86-.16l.15 2.2c-.66.18-1.35.28-2.04.28-2.3 0-2.78-1.37-2.78-3.36v-3.36h-1.26V9.9h1.26V8.08l2.88-1.66V9.9h1.96v2.13h-1.97zm-27.38 6.72c-1.2 0-2.26-.42-2.92-1.34h-.02l.01 1.15h-2.72V8.07l2.87-1.65v2.92c0 .8-.03 1.6-.03 1.6h.05c.38-.53 1.28-1.21 2.78-1.21 2.54 0 4.16 1.95 4.16 4.5s-1.61 4.52-4.18 4.52zm-.8-6.8c-1.24 0-2.08.9-2.08 2.24 0 1.34.83 2.26 2.08 2.26 1.24 0 2.06-.92 2.06-2.26 0-1.33-.82-2.25-2.06-2.25zm-19.36 6.61h-5.07V6.42h4.22a6.9 6.9 0 0 1 3.05.5c.99.48 1.6 1.48 1.57 2.56a2.8 2.8 0 0 1-1.8 2.67v.04c1.54.37 2.56 1.39 2.56 2.88 0 2.6-2.23 3.49-4.54 3.49zm-.97-10.03h-1.2v2.8h1.13c1 0 1.98-.23 1.98-1.43 0-1.14-.94-1.37-1.9-1.37zm.4 4.77h-1.6v3.09h1.6c1.07 0 2.17-.28 2.17-1.55s-1.1-1.54-2.17-1.54zm11.4 5.26l-.05-.92c-.38.37-1.1 1.11-2.53 1.11-1.56 0-3.2-.83-3.2-2.76 0-1.94 1.8-2.59 3.43-2.66l2.22-.09v-.19c0-.91-.66-1.39-1.8-1.39-.96.03-1.9.3-2.71.77L179 10.6a8.85 8.85 0 0 1 3.79-.88c2.76 0 4.36 1.13 4.36 3.94v4.9h-2.75zm-1.52-3.73c-.88.03-1.4.4-1.4 1.05s.56 1.08 1.35 1.08c.6 0 1.15-.3 1.47-.8v-1.42l-1.42.09z"/><path fill="#173760" d="M203.57 19.38c-.65 1.55-1.37 2.5-2.87 2.5a6.47 6.47 0 0 1-2.46-.43l.57-2.07c.34.12.7.2 1.06.23.32 0 .63 0 .86-.57l.32-.75-3.5-8.41h3l2 5.57 2-5.57h2.96l-3.94 9.5zm8.48-.61c-1.8 0-3.39-.92-4.4-1.83l1.44-2.08c.9.92 2.28 1.53 3.23 1.53.95 0 1.64-.44 1.64-1.25 0-.8-.91-1.14-1.45-1.33-.54-.2-1.47-.51-1.88-.69-.3-.14-.93-.37-1.47-.88a3 3 0 0 1-.97-2.34 3.4 3.4 0 0 1 1.29-2.66 5.1 5.1 0 0 1 3.26-.97c1.44 0 3.09.67 3.93 1.5l-1.23 1.99a4.31 4.31 0 0 0-2.77-1.24c-.93 0-1.61.36-1.61 1.1 0 .73.7 1.02 1.25 1.23.56.2 1.46.52 1.85.68 1.58.57 2.7 1.57 2.7 3.33 0 2.62-2.4 3.9-4.8 3.9zm20.49-3.87h-6.3c.13 1.25 1.1 1.81 2.26 1.81a5.05 5.05 0 0 0 2.65-.83l1.13 1.47c-.28.21-1.45 1.4-4.2 1.4-2.74 0-4.7-1.65-4.7-4.52 0-2.87 2.15-4.5 4.77-4.5 2.62 0 4.43 1.7 4.43 4.24 0 .42-.04.93-.04.93zm-4.45-3.35c-1.18 0-1.8.91-1.83 1.74h3.64a1.77 1.77 0 0 0-1.81-1.74zm11.07 7.2c-1.31 0-2.24-.47-2.8-1.28v4.27h-2.87V9.88h2.73L236.2 11h.04a3.68 3.68 0 0 1 2.94-1.26c2.54 0 4.16 1.95 4.16 4.5s-1.62 4.52-4.18 4.52zm-.83-6.8c-1.22 0-2.06.9-2.06 2.24 0 1.34.84 2.26 2.06 2.26 1.22 0 2.1-.92 2.1-2.26 0-1.34-.86-2.25-2.1-2.25zm8.92 6.8c-1.33 0-2.73-.4-3.74-1.34l1.08-1.67c.72.6 1.9 1.06 2.62 1.06.72 0 1.22-.18 1.22-.73 0-.56-1.3-.85-1.62-.95-1.47-.37-2.76-.88-2.76-2.68 0-1.69 1.5-2.73 3.36-2.73 1.84 0 2.88.67 3.39 1.08l-.93 1.64c-.5-.39-1.5-.84-2.22-.84-.69 0-1.06.17-1.06.63 0 .46.68.67 1.29.84 1.52.44 3.12.9 3.12 2.82 0 2.08-1.92 2.87-3.75 2.87z"/><path fill="#F58331" d="M153.39 5.59l-.04.01v3.44l10.03-1.01V3zm-5.28 8.01l9.11 1.54v-4.81l-9.11.22zM144 17.27l8.36 4.73v-5.87L144 13.88z"/><path fill="#48CE65" d="M0 9.28c6.87-6.85 16.08-6.27 16.08-6.27l10.6 2.29c-9.95-.58-15.88 6.87-15.88 6.87L0 9.28zM12.84 4.5c-1.66 0-2.97.38-2.97.86s1.34.86 2.97.86c1.63 0 2.98-.37 2.98-.86 0-.5-1.35-.86-2.98-.86z"/><path fill="#48CE65" d="M26.36 6.46c-5.63.6-11.63 4.72-15.55 10.88L1.5 14.86l.5 1.86 8.81 2.35c5.23-8.21 11.25-11.24 15.45-12.22l.1-.39z"/><path fill="#48CE65" d="M26.57 5.68c-8.5-.2-14.45 6.15-15.76 8.2L.5 11.13 1 13l9.82 2.62c2.61-4.1 8.59-9.35 15.66-9.55l.1-.4z"/><path fill="#173760" d="M100.67 17.63V6.98l2.88-1.68v12.33zm-3.99 0V6.98l2.89-1.68v12.33zm-67.33 0V5.3h8.03v2.3h-5.14v2.52h4.85v2.31h-4.85v2.86h5.3v2.34zm14.62 0h-2.69l-3.63-8.81h2.99l2.01 5.57 2-5.57h2.96zm12.4-3.72h-6.3c.12 1.27 1.09 1.84 2.26 1.84a5 5 0 0 0 2.65-.84l1.14 1.5c-.3.2-1.46 1.42-4.2 1.42-2.76 0-4.73-1.68-4.73-4.6 0-2.9 2.15-4.57 4.78-4.57 2.62 0 4.43 1.74 4.43 4.31 0 .42-.03.94-.03.94zm-4.46-3.4a1.8 1.8 0 0 0-1.83 1.77h3.65a1.78 1.78 0 0 0-1.83-1.78zm11.19.94h-.12a2.33 2.33 0 0 0-1.05-.22c-1.42 0-1.78 1.32-1.78 2.48v3.92h-2.87V8.82h2.88l-.02 1.25h.04c.5-.97 1.24-1.41 2.19-1.41.3-.02.61.04.9.16l-.16 2.63zm6.74 7.02C69.2 20.04 68.48 21 66.97 21c-1.5 0-2.46-.43-2.46-.43l.57-2.1c.34.12.7.2 1.06.22.33 0 .63 0 .86-.57l.33-.77-3.5-8.54h2.99l2.01 5.66 2-5.66h2.96l-3.95 9.66zm8.86-.84h-4.2V5.3h4.2c3.9 0 6.8 2.05 6.8 6.16s-2.88 6.17-6.8 6.17zm.16-9.94H77.4v7.49h1.47c2.3 0 3.68-1.43 3.68-3.72 0-2.32-1.32-3.77-3.68-3.77zM90.9 17.83c-2.8 0-4.92-1.74-4.92-4.58s2.12-4.6 4.92-4.6 4.9 1.76 4.9 4.6-2.1 4.58-4.9 4.58zm0-6.92c-1.28 0-2.01.98-2.01 2.29 0 1.3.73 2.28 2 2.28 1.29 0 2.02-.98 2.02-2.28 0-1.3-.75-2.3-2.01-2.3zm19.37 6.72l-.06-.93c-.37.37-1.1 1.13-2.53 1.13-1.56 0-3.22-.84-3.22-2.81 0-1.97 1.82-2.63 3.45-2.7l2.23-.09v-.2c0-.92-.67-1.4-1.82-1.4a5.7 5.7 0 0 0-2.7.77l-.75-1.85a8.76 8.76 0 0 1 3.79-.9c2.76 0 4.36 1.15 4.36 4v4.98h-2.75zm-1.53-3.79c-.88.04-1.4.41-1.4 1.07 0 .66.56 1.1 1.35 1.1.6-.01 1.15-.31 1.47-.81v-1.45l-1.42.09zm11.1-2.39h-.12a2.33 2.33 0 0 0-1.05-.22c-1.42 0-1.78 1.32-1.78 2.48v3.92h-2.87V8.82h2.87l-.02 1.25h.04c.5-.97 1.24-1.41 2.2-1.41.3-.02.6.04.89.16l-.16 2.63z"/></g></svg>