
<svg xmlns="http://www.w3.org/2000/svg" width="179" height="32" viewBox="0 0 179 32"><defs><linearGradient id="a" x1="4.95%" x2="63.66%" y1="48.49%" y2="51.71%"><stop offset="0%" stop-color="#0073B9"/><stop offset="100%" stop-color="#0091D9"/></linearGradient></defs><g fill="none"><g fill="#0073B9"><path d="M31.89 0v31.89H0V0h31.89zm-10.9 18.73h-5.16l3.31 5.63h5.34L21 18.73zm-7.2 0H8.97v3.98h4.84v-3.98zM8.97 7.58v9.87h7.83c2.23-.01 2.95-.23 3.52-.47 2.02-.85 2.63-3.15 2.63-4.46 0-1.3-.6-3.6-2.63-4.46a10.9 10.9 0 00-3.6-.48H8.95z"/><path d="M15.9 10.72c.82 0 2.23.12 2.23 1.76v.2c-.1 1.57-1.56 1.61-2.33 1.59h-2v-3.55h2.1z"/></g><path fill="url(#a)" d="M122.94 3.99c3.81 0 6.82.98 9.29 2.85l.28.22-3.22 4.52a11.72 11.72 0 00-6.5-2.28c-1.5 0-2.26.6-2.32 1.37v.18c0 1.05.8 1.52 4 2.25 5.24 1.13 8.54 2.8 8.67 6.94v.33c0 4.72-3.75 7.53-9.4 7.53-3.97.01-7.76-1.2-10.59-3.56l-.3-.26 3.58-4.26a12.06 12.06 0 007.54 2.78c1.65 0 2.58-.54 2.65-1.46v-.2c0-.96-.76-1.48-3.91-2.22-4.87-1.1-8.63-2.45-8.77-7v-.33c0-4.3 3.41-7.4 9-7.4zm-29.7.4l5.56 8.95 5.54-8.96h6.81v23.14h-6.41v-13.3L98.8 23.3h-.14l-5.91-9v13.23h-3.97l-2.35-5.47V4.38h6.81zm67.34 0l4.77 8.42 4.82-8.43h7.2l-8.83 14.38v8.76h-6.47v-8.66l-8.85-14.48h7.36zM75.8 4.21l9.9 23.3h-6.9l-1.7-4.14h-8.96l-1.66 4.14h-1.9l-3.02-4.4 8.03-18.9h6.21zm74.2.16l3.3 5.46h-11.56v3.5h10.2v5.06h-10.2v3.66h11.87v5.46h-18.25V4.38H150zm-99.15 0c3.56 0 6.01.93 7.58 2.51a7.02 7.02 0 012.05 5.05v.42a7.26 7.26 0 01-4.52 6.98l-.26.12 5.56 8.05H53.8l-4.68-7H46.3v7h-6.45V4.38h11zm21.8 7.44l-2.62 6.58h5.21l-2.6-6.58zM50.52 9.93h-4.21v5.55h4.25c2.12 0 3.36-.98 3.45-2.56v-.25c0-1.8-1.33-2.74-3.49-2.74z"/></g></svg>