<svg xmlns="http://www.w3.org/2000/svg" viewBox="2 13.917 22.042 22.042"><path fill="#DAA628" d="M13.02 14.093c-5.99 0-10.83 4.84-10.83 10.83s4.84 10.832 10.83 10.832 10.832-4.84 10.832-10.83a10.82 10.82 0 0 0-10.83-10.832zm-6.985 18.2c1.043-2.103 2.58-3.698 4.347-4.496l.593-.268-.528-.38a4.508 4.508 0 0 1-1.88-3.65c0-2.475 1.998-4.488 4.454-4.488s4.456 2.013 4.456 4.487c0 1.462-.717 2.84-1.918 3.682l-.53.373.588.273c1.76.817 3.283 2.427 4.312 4.536a10.1 10.1 0 0 1-6.906 2.698 10.1 10.1 0 0 1-6.985-2.77zm14.448-.485c-.995-1.942-2.395-3.476-4.02-4.388a5.256 5.256 0 0 0 1.762-3.92c0-2.89-2.335-5.238-5.204-5.238-2.87 0-5.202 2.35-5.202 5.237 0 1.48.635 2.89 1.723 3.88-1.633.89-3.045 2.41-4.054 4.345a10.105 10.105 0 0 1-2.604-6.803c0-5.646 4.495-10.14 10.14-10.14a10.08 10.08 0 0 1 10.14 10.14 10.1 10.1 0 0 1-2.677 6.885z"/></svg>